<?xml version="1.0" standalone="no"?>
<!DOCTYPE svg PUBLIC "-//W3C//DTD SVG 20010904//EN"
 "http://www.w3.org/TR/2001/REC-SVG-20010904/DTD/svg10.dtd">
<svg version="1.0" xmlns="http://www.w3.org/2000/svg"
 width="485.000000pt" height="433.000000pt" viewBox="0 0 485.000000 433.000000"
 preserveAspectRatio="xMidYMid meet">

<g transform="translate(0.000000,433.000000) scale(0.100000,-0.100000)"
fill="#000000" stroke="none">
<path d="M1101 4044 c-66 -97 -197 -177 -316 -194 -254 -36 -415 -240 -415
-525 0 -51 -15 -69 -18 -23 -2 18 -7 59 -11 93 -5 34 -6 93 -1 132 8 79 33
125 116 213 46 50 101 136 92 146 -2 1 -41 -42 -86 -96 -96 -115 -140 -195
-149 -269 -4 -35 -9 -48 -15 -39 -6 8 -7 4 -3 -12 9 -41 11 -173 2 -205 -15
-55 -17 -86 -6 -106 7 -15 7 -24 -1 -34 -17 -20 7 -30 26 -11 8 9 21 17 27 17
7 1 23 3 37 4 14 2 30 -1 36 -6 6 -5 18 -7 27 -3 17 6 32 -11 17 -21 -5 -3
-10 -1 -10 5 0 6 -4 8 -10 5 -5 -3 -18 -1 -29 4 -14 8 -20 7 -24 -4 -4 -9 -1
-12 9 -8 10 4 17 -2 21 -16 3 -11 9 -18 14 -16 4 3 10 -9 13 -27 3 -18 10 -60
16 -92 5 -32 7 -84 3 -114 -4 -37 -3 -53 4 -49 7 4 13 -15 18 -50 4 -32 16
-86 27 -121 16 -52 22 -61 33 -52 8 6 12 17 9 25 -10 24 11 24 23 -1 6 -13 7
-22 2 -18 -9 5 -14 -45 -11 -98 1 -16 -3 -28 -10 -28 -19 0 259 -178 346 -222
146 -73 225 -139 269 -224 9 -17 23 -34 30 -37 8 -3 29 -31 47 -63 24 -41 33
-69 32 -100 0 -24 3 -44 6 -44 16 1 33 18 34 36 2 41 -24 133 -47 165 -14 18
-25 39 -25 46 0 7 -4 13 -10 13 -5 0 -10 9 -10 20 0 11 -4 20 -8 20 -9 0 -30
20 -80 74 -19 20 -41 36 -49 36 -8 0 -37 18 -63 40 -26 22 -53 40 -59 40 -20
0 -133 61 -190 101 -55 40 -60 55 -6 19 32 -21 45 -25 45 -12 0 12 -162 77
-185 74 -16 -2 -17 -1 -5 7 12 8 8 10 -15 8 -24 -2 -31 2 -33 21 -2 12 1 22 7
22 6 0 8 12 4 32 -3 18 -2 29 3 26 5 -4 9 7 10 23 1 15 -2 26 -6 24 -14 -9
-41 45 -35 68 6 21 6 22 -10 3 -8 -11 -13 -27 -10 -35 2 -9 0 -23 -6 -31 -8
-11 -9 -4 -5 25 11 76 13 126 4 113 -8 -14 -13 16 -9 60 1 15 -2 21 -8 17 -15
-9 -13 32 3 78 12 32 12 36 0 26 -22 -18 -18 11 12 75 28 62 27 86 -2 37 -17
-30 -19 -30 -26 -10 -9 24 5 54 30 68 9 4 121 12 248 16 l230 7 11 -39 c50
-176 56 -191 74 -196 28 -8 39 -49 39 -147 0 -67 -3 -89 -14 -93 -8 -3 -18
-26 -21 -51 -8 -53 2 -139 15 -131 11 7 42 -50 33 -59 -3 -3 1 -14 9 -23 20
-23 141 -199 220 -320 33 -51 63 -91 67 -88 4 2 34 -18 67 -45 48 -40 66 -50
97 -50 23 0 36 4 32 10 -10 16 21 12 35 -5 7 -8 9 -15 5 -15 -10 0 50 -73 106
-128 42 -42 49 -54 45 -78 -2 -16 -5 -44 -5 -63 -1 -27 -4 -32 -18 -27 -16 6
-16 6 0 -12 9 -10 17 -26 17 -35 0 -9 5 -17 10 -17 6 0 10 5 10 11 0 5 15 -1
33 -14 38 -30 246 -157 255 -157 3 0 -3 7 -14 15 -22 17 -12 20 17 4 11 -5 17
-14 14 -20 -4 -5 0 -9 7 -9 40 0 129 -48 161 -87 19 -23 38 -39 42 -35 5 4 5
1 1 -6 -4 -7 -12 -10 -17 -7 -5 4 -9 -1 -9 -10 0 -9 -18 -24 -41 -34 -26 -12
-36 -21 -27 -25 7 -3 -2 -3 -21 0 -23 4 -31 3 -27 -5 7 -10 -7 -18 -62 -35
-17 -6 -24 -3 -31 16 l-10 23 -1 -25 c-1 -23 -2 -23 -10 -5 -7 18 -9 17 -20
-13 -7 -18 -25 -39 -41 -48 -36 -18 -37 -23 -3 -16 24 4 26 2 19 -19 -4 -13
-11 -48 -15 -79 -19 -139 -69 -328 -104 -398 -13 -26 -51 -75 -83 -107 -96
-99 -148 -165 -128 -165 10 0 72 57 139 126 118 123 122 128 148 208 34 105
45 161 29 152 -6 -4 -11 -3 -11 3 0 5 7 14 16 19 12 7 15 19 12 41 -2 17 -2
31 2 31 7 0 33 140 27 146 -3 3 -8 -13 -12 -35 -4 -23 -11 -41 -17 -41 -6 0
-8 6 -5 14 3 7 9 34 12 60 8 49 25 73 25 34 0 -18 2 -20 10 -8 8 12 10 12 10
-5 0 -17 3 -16 18 8 9 15 20 27 24 27 5 0 8 6 8 13 0 14 60 49 93 54 12 2 33
12 47 24 14 11 33 22 43 26 9 3 17 10 17 17 0 6 4 17 9 25 7 11 14 10 37 -6
67 -48 160 -82 264 -98 58 -9 133 -22 168 -30 35 -8 92 -15 127 -15 56 0 66 3
83 25 11 14 23 25 26 25 15 0 121 125 138 162 29 65 68 198 83 283 8 44 22
210 30 369 9 159 18 292 20 296 7 11 -125 132 -176 163 -24 14 -63 36 -87 48
-41 21 -43 21 -62 4 -11 -10 -20 -23 -20 -28 0 -6 6 -3 13 7 11 15 17 16 52 4
24 -8 44 -22 50 -35 5 -13 16 -23 23 -23 7 0 15 -7 18 -15 4 -8 10 -15 16 -15
5 0 6 5 2 12 -10 15 11 2 64 -40 25 -21 42 -43 42 -56 0 -15 3 -17 9 -8 22 35
23 -175 1 -343 -5 -38 -12 -101 -15 -140 -19 -211 -71 -404 -146 -546 -29 -54
-32 -57 -87 -69 -77 -18 -178 -14 -303 11 -57 11 -128 22 -157 25 -28 2 -71
12 -95 23 -23 10 -52 22 -65 26 -15 4 -21 12 -18 22 4 11 1 13 -14 8 -17 -5
-19 -2 -18 29 1 20 5 36 9 36 28 0 49 529 24 638 -7 30 -34 48 -61 41 -14 -5
-75 30 -124 71 -25 20 -63 46 -85 58 -152 77 -209 124 -240 196 -15 33 -33 73
-40 88 l-13 28 52 -6 c32 -4 61 -2 72 4 17 10 14 12 -16 13 -19 1 -38 1 -42 0
-5 0 -8 4 -8 10 0 5 -5 7 -10 4 -17 -10 -70 5 -70 20 0 8 -6 20 -13 27 -23 23
-77 106 -77 118 0 7 -35 46 -77 87 -67 65 -86 78 -147 98 -39 12 -82 22 -95
21 -33 -2 -60 39 -82 125 -10 41 -28 103 -40 137 -12 35 -17 67 -13 71 5 5 58
16 118 25 59 10 169 35 245 57 108 32 145 38 183 33 37 -4 45 -9 41 -21 -4
-11 -2 -14 5 -9 8 5 12 0 12 -13 0 -11 11 -54 25 -95 14 -41 25 -86 25 -101 0
-17 4 -24 11 -19 18 11 2 -44 -23 -78 -11 -16 -34 -35 -51 -43 -18 -9 -24 -13
-14 -10 15 4 11 -4 -13 -35 -37 -47 -46 -54 -55 -40 -4 6 -12 8 -18 4 -7 -3 3
8 21 25 42 40 27 40 -28 -1 -27 -19 -45 -27 -48 -20 -2 7 -8 12 -14 12 -6 0
-4 -8 5 -18 10 -10 14 -22 10 -25 -3 -4 -2 -7 3 -7 6 0 15 5 22 12 6 6 18 13
26 14 15 2 17 -9 32 -121 8 -63 40 -162 63 -194 10 -13 30 -25 44 -27 l27 -3
-24 32 c-13 18 -33 51 -45 74 -23 46 -55 172 -47 181 3 3 1 11 -5 18 -8 10 2
25 40 62 53 51 62 52 36 2 -9 -17 -13 -30 -10 -30 5 0 67 126 70 140 2 16 18
29 27 24 7 -5 8 14 4 62 -13 131 -28 196 -49 217 l-20 20 64 -5 c86 -7 125
-28 133 -71 3 -18 13 -42 22 -53 15 -19 15 -19 6 1 -5 11 -12 42 -16 69 -5 39
-3 47 8 43 35 -14 94 -26 131 -28 22 -1 62 -11 88 -21 53 -20 98 -23 113 -8 6
6 65 14 131 19 66 5 125 11 130 14 5 3 27 8 50 10 46 6 93 26 60 27 -27 0 -11
18 26 30 28 9 29 9 5 6 -34 -4 -35 -1 -4 19 17 11 56 17 127 20 94 4 109 2
159 -21 30 -14 77 -42 105 -63 27 -21 72 -50 99 -66 103 -59 140 -105 165
-211 7 -29 22 -61 35 -73 42 -40 178 -76 241 -64 l40 7 -55 7 c-70 8 -166 35
-204 57 -24 14 -32 28 -40 72 -6 30 -22 72 -35 93 -13 21 -22 40 -20 42 3 2
26 -1 53 -7 59 -12 154 3 206 35 43 25 160 138 160 153 0 6 12 29 26 50 15 21
20 34 13 28 -8 -6 -51 -41 -96 -77 -147 -118 -299 -170 -389 -132 -21 8 -79
58 -133 114 -101 103 -134 126 -216 147 -69 19 -112 17 -178 -5 l-57 -20 15
29 c39 76 164 150 252 150 45 0 123 -20 123 -31 0 -5 9 -9 20 -9 37 0 146 -56
167 -86 11 -16 37 -62 58 -102 55 -105 125 -160 172 -133 15 9 13 10 -14 11
-36 0 -47 13 -116 141 -44 81 -82 118 -153 153 -148 73 -250 91 -354 64 -63
-16 -82 -27 -123 -66 -45 -44 -47 -45 -37 -17 14 37 30 56 41 49 5 -3 9 -1 9
5 0 5 17 20 38 33 36 22 45 23 247 23 231 1 235 2 297 65 58 60 107 94 142 97
17 2 94 8 171 12 143 9 201 19 268 48 56 24 45 31 -25 16 -36 -8 -120 -14
-193 -14 -71 0 -170 -4 -218 -9 -66 -7 -106 -5 -163 6 -151 28 -304 10 -397
-47 -20 -12 -51 -19 -82 -19 -46 0 -82 -7 -217 -40 -70 -17 -128 -96 -101
-138 15 -24 32 -26 26 -4 -6 26 21 83 47 100 11 6 37 15 57 18 21 3 64 11 96
18 31 7 57 10 57 7 0 -4 -36 -24 -79 -46 -105 -51 -148 -110 -107 -145 19 -15
10 -40 -57 -148 l-51 -84 -27 34 c-15 18 -28 44 -27 58 0 14 -3 94 -7 178 -5
118 -4 156 6 168 20 24 110 67 149 71 19 2 46 7 60 12 14 6 93 12 175 14 151
4 183 11 234 49 13 10 33 18 45 18 16 0 18 2 7 9 -12 8 -10 15 12 44 14 19 24
37 20 40 -3 3 -28 -11 -57 -32 -65 -49 -98 -65 -161 -80 -49 -11 -70 -12 -275
-12 -67 -1 -117 -6 -139 -15 -57 -24 -71 -19 -72 24 l-1 37 -14 -34 c-14 -31
-17 -33 -52 -27 -20 3 -64 6 -97 7 l-60 1 60 12 c107 22 116 26 161 74 59 63
57 81 -6 38 -63 -43 -121 -62 -235 -77 -108 -14 -199 -8 -320 21 -67 16 -105
20 -148 15 -57 -6 -139 -36 -137 -49 1 -4 -11 -17 -25 -28 -24 -18 -34 -20
-113 -12 -48 4 -98 6 -112 5 -32 -3 -104 -52 -108 -74 -5 -25 21 -21 49 9 45
48 82 59 160 44 59 -10 69 -15 63 -29 -15 -36 -15 -58 0 -70 14 -12 16 -11 16
6 0 20 63 93 81 93 6 0 19 10 29 23 17 21 27 22 152 24 73 1 144 2 157 2 13 1
29 -3 36 -9 6 -5 61 -11 122 -12 61 -2 109 -6 107 -10 -2 -3 -37 -12 -77 -19
-39 -7 -90 -20 -111 -31 -22 -10 -49 -15 -59 -12 -19 6 -19 5 1 -16 17 -19 27
-21 61 -15 23 4 41 5 41 3 0 -2 -9 -23 -20 -46 -11 -22 -20 -59 -20 -82 0 -22
9 -58 20 -80 23 -46 25 -57 7 -41 -8 6 -16 9 -19 6 -2 -3 -19 11 -38 30 -28
29 -31 37 -20 50 7 8 8 15 3 15 -14 0 -33 -23 -33 -40 0 -17 220 -246 264
-276 44 -28 22 -27 -36 2 -143 72 -214 140 -276 264 -45 88 -56 133 -40 163
10 20 10 21 -5 8 -34 -27 -10 -193 39 -268 8 -12 14 -25 14 -29 0 -8 -50 24
-70 45 -8 9 -21 17 -28 19 -26 5 22 -61 97 -135 50 -50 67 -73 55 -73 -39 1
-146 86 -174 140 -25 46 -25 18 -1 -59 l19 -62 -21 7 c-12 4 -38 8 -57 9 -19
1 -38 3 -41 4 -3 0 -12 19 -19 41 -16 48 -25 46 -12 -3 l10 -35 -72 -6 c-39
-4 -87 -10 -107 -13 -31 -4 -37 -2 -44 18 -40 126 -43 156 -16 216 26 57 0 47
-29 -11 -22 -47 -26 -123 -9 -195 5 -24 8 -46 5 -48 -2 -3 -39 -14 -82 -24
-54 -14 -80 -17 -87 -10 -15 15 -27 14 -21 -3 4 -9 -11 -16 -56 -23 -33 -5
-62 -7 -64 -4 -2 3 -7 52 -11 108 -9 117 7 247 36 305 11 21 19 55 19 76 0 34
8 47 60 101 59 62 86 110 32 58 -28 -27 -60 -37 -46 -15 4 7 3 8 -4 4 -7 -4
-12 -14 -12 -22 0 -8 -4 -12 -10 -9 -5 3 -10 -2 -10 -12 0 -26 -29 -65 -42
-57 -7 4 -8 2 -4 -4 4 -7 3 -12 -2 -12 -11 0 -45 -105 -40 -122 2 -6 10 9 18
35 7 26 16 50 20 52 10 6 -7 -71 -20 -96 -6 -10 -10 -36 -10 -59 0 -23 -4 -39
-8 -36 -5 3 -7 20 -6 38 3 30 2 29 -7 -7 -9 -33 -7 -230 4 -319 2 -17 -9 -21
-83 -33 -46 -7 -90 -11 -96 -9 -17 7 -34 95 -41 212 -7 120 6 172 76 308 33
64 57 97 83 115 21 14 37 31 38 38 0 25 -37 18 -84 -15 -45 -31 -56 -35 -130
-37 -45 -1 -93 -3 -107 -4 -37 -2 -97 -57 -216 -200 -97 -116 -153 -206 -153
-249 0 -9 -12 -39 -25 -67 -14 -27 -25 -56 -25 -62 0 -7 -5 -13 -11 -13 -5 0
-7 -6 -3 -12 4 -7 -1 -6 -10 3 -13 12 -17 38 -19 135 -2 111 0 124 27 194 44
112 79 156 171 214 65 41 135 64 215 70 78 7 166 47 225 103 45 43 79 101 74
126 -3 13 -10 8 -28 -19z m859 -134 c-19 -5 -41 -4 -50 0 -10 6 1 9 35 9 48
-1 49 -1 15 -9z m584 -76 c51 -7 56 -19 30 -69 -17 -33 -33 -186 -26 -260 4
-50 4 -50 -16 -32 -14 13 -24 41 -32 90 -16 105 -31 128 -27 45 2 -38 1 -68
-2 -68 -3 0 -25 19 -48 42 -52 51 -55 81 -15 162 16 31 25 56 21 56 -15 0 -57
-76 -64 -114 -4 -20 -8 -36 -10 -36 -1 0 -15 7 -31 14 -15 8 -31 13 -36 10
-14 -9 -1 -64 27 -107 l28 -42 -33 30 c-39 36 -70 95 -70 131 0 37 38 97 57
89 10 -3 13 -1 10 8 -3 8 4 14 17 15 11 1 50 10 86 21 77 23 74 23 134 15z
m-1454 -20 c0 -13 -54 -104 -58 -99 -3 3 -15 -14 -26 -37 -18 -38 -21 -63 -21
-228 0 -102 4 -204 8 -226 l8 -41 -44 -1 c-25 -1 -74 -6 -108 -12 -35 -5 -92
-10 -127 -10 l-63 0 17 29 c9 16 36 41 59 55 52 33 131 114 140 144 8 28 0 28
-41 -3 -43 -33 -46 -32 -28 11 8 20 14 38 12 40 -5 5 -190 -220 -206 -251 -7
-14 -20 -25 -29 -25 -13 0 -15 8 -10 43 7 62 40 141 98 237 29 47 61 102 71
122 19 35 75 93 128 131 14 10 18 15 10 11 -38 -18 -140 -96 -173 -133 -21
-23 -58 -73 -82 -111 -47 -73 -56 -82 -50 -52 2 9 4 22 4 29 1 19 109 172 178
253 95 110 112 120 205 120 67 0 78 -2 79 -17 0 -14 2 -15 6 -3 9 22 43 41 43
24z m2364 -14 c69 -11 76 -16 50 -34 -10 -8 -39 -33 -64 -56 -72 -67 -94 -73
-244 -66 -99 5 -146 3 -191 -8 -33 -8 -61 -13 -62 -12 -2 2 19 15 45 29 27 15
52 24 56 20 3 -3 6 -1 6 5 0 6 23 23 51 38 43 21 60 25 96 19 25 -3 63 -3 86
2 41 8 41 8 -28 13 l-70 5 35 19 c59 33 139 42 234 26z m-574 -213 c0 -2 -10
-12 -22 -23 l-23 -19 19 23 c18 21 26 27 26 19z m-56 -207 c-24 -48 -40 -67
-50 -57 -3 2 2 12 11 20 8 9 15 18 15 22 0 6 42 65 46 65 2 0 -8 -22 -22 -50z
m285 9 c51 -11 72 -26 141 -102 55 -60 53 -77 -2 -28 -76 66 -172 96 -268 83
-57 -8 -59 -8 -44 9 22 24 74 49 104 49 14 0 45 -5 69 -11z m-2742 -171 c-3
-7 -5 -2 -5 12 0 14 2 19 5 13 2 -7 2 -19 0 -25z m126 -15 c4 -19 2 -33 -3
-33 -6 0 -10 17 -10 37 0 43 5 41 13 -4z m-167 -18 c3 -17 1 -24 -6 -20 -5 3
-10 18 -10 32 0 32 9 25 16 -12z m934 -82 c0 -7 7 -31 16 -54 12 -29 19 -37
25 -27 12 18 11 2 0 -20 -5 -9 -12 -25 -15 -35 -7 -22 -26 -13 -26 13 0 10 -4
22 -10 25 -6 3 -10 -4 -10 -17 0 -33 55 -123 90 -150 17 -12 30 -27 30 -33 0
-7 11 -17 25 -23 14 -6 25 -16 25 -22 0 -6 11 -15 25 -20 14 -5 25 -17 25 -25
0 -9 4 -13 10 -10 5 3 38 -15 72 -41 34 -27 58 -42 54 -35 -5 7 -45 40 -90 73
-79 58 -108 88 -87 88 17 0 93 -42 133 -72 43 -33 110 -131 114 -166 1 -13 11
-34 22 -46 10 -11 22 -29 25 -39 4 -10 11 -16 16 -13 5 3 8 -2 7 -12 0 -9 5
-16 12 -14 8 1 11 -2 7 -8 -3 -5 5 -31 18 -57 13 -27 25 -52 27 -58 9 -32 19
-49 20 -35 1 8 12 -6 24 -32 13 -26 25 -45 28 -42 3 3 10 -9 16 -25 7 -19 7
-31 1 -31 -5 0 -9 -9 -9 -20 0 -28 -26 -77 -46 -88 -55 -31 -84 38 -60 144 8
37 -26 151 -52 171 -9 7 -14 13 -9 13 4 0 -2 9 -14 21 -12 12 -19 29 -16 40 3
12 0 19 -9 19 -7 0 -16 10 -19 23 -4 12 -16 27 -28 32 -12 6 -21 18 -21 28 1
9 -5 17 -13 17 -8 0 -20 14 -26 30 -6 17 -15 30 -19 30 -10 0 -53 42 -53 52 0
38 -140 30 -227 -13 -41 -21 -53 -54 -42 -116 9 -55 43 -131 61 -138 13 -4 14
-3 3 10 -7 9 -10 18 -8 21 7 6 82 -83 132 -157 42 -62 70 -94 140 -157 26 -24
46 -46 43 -48 -2 -2 -30 9 -63 25 l-58 30 54 -53 c58 -56 99 -116 80 -116 -21
0 -99 73 -133 124 -46 69 -53 81 -39 72 18 -11 15 -1 -17 48 -15 25 -31 43
-35 39 -3 -3 0 -13 7 -22 10 -14 10 -14 -5 -3 -17 14 -164 214 -206 281 -18
29 -21 46 -18 86 4 36 3 43 -3 25 -8 -23 -9 -24 -10 -3 -1 12 4 25 9 28 6 4
17 23 25 43 19 45 11 143 -16 188 -10 17 -16 33 -13 37 3 3 -4 8 -16 12 -25 8
-40 41 -69 144 l-20 71 22 5 c12 3 54 12 92 19 62 12 71 11 83 -2 6 -9 12 -22
12 -29z m-761 -9 c-6 -7 -15 -11 -21 -8 -5 3 -4 12 3 20 6 7 15 11 21 8 5 -3
4 -12 -3 -20z m-12 -86 c-3 -8 -6 -5 -6 6 -1 11 2 17 5 13 3 -3 4 -12 1 -19z
m827 -80 c10 -37 7 -42 -13 -24 -11 10 -17 24 -14 32 8 21 20 17 27 -8z m-785
-238 l-1 -35 -8 30 c-4 17 -8 39 -9 50 -1 16 1 17 9 5 5 -8 9 -31 9 -50z
m1046 -260 c3 -5 1 -10 -4 -10 -6 0 -11 5 -11 10 0 6 2 10 4 10 3 0 8 -4 11
-10z m215 -64 c0 -12 -5 -7 -19 24 -11 24 -11 24 3 6 9 -11 16 -24 16 -30z
m-316 -52 c3 -8 2 -12 -4 -9 -6 3 -10 10 -10 16 0 14 7 11 14 -7z m200 -50
c11 -28 6 -39 -9 -20 -8 11 -15 23 -15 28 0 14 18 9 24 -8z m1653 -66 c-3 -8
-6 -5 -6 6 -1 11 2 17 5 13 3 -3 4 -12 1 -19z m-1275 -88 c51 -39 118 -83 148
-97 30 -15 77 -40 104 -57 l49 -30 -7 -305 c-4 -225 -9 -307 -19 -313 -15 -10
-32 -5 -32 10 0 6 -9 18 -20 26 -11 9 -17 16 -13 16 11 0 -50 60 -62 60 -7 0
-27 15 -44 33 -17 18 -47 44 -66 57 -37 26 -100 87 -189 182 -42 45 -55 68
-62 105 -6 32 -6 49 2 54 8 5 7 21 -6 58 -9 29 -15 58 -12 65 3 7 26 30 52 51
34 28 49 35 54 26 9 -14 21 42 21 97 0 17 2 32 4 32 2 0 46 -32 98 -70z m-338
-14 c-3 -9 -12 -16 -20 -16 -11 0 -10 4 4 18 20 22 25 21 16 -2z m443 -23 c46
-29 91 -70 52 -48 -30 18 -129 88 -129 92 0 5 5 2 77 -44z m-602 -21 c-3 -3
-11 0 -18 7 -9 10 -8 11 6 5 10 -3 15 -9 12 -12z m198 -17 c9 -20 17 -38 17
-40 0 -7 -58 -35 -73 -35 -12 0 -53 68 -45 75 4 4 72 33 79 34 3 1 13 -15 22
-34z m-119 -45 c14 -22 22 -40 18 -40 -11 0 -36 28 -51 58 -20 37 5 24 33 -18z
m164 -60 c2 -23 1 -24 -11 -7 -23 28 -28 19 -8 -15 11 -18 22 -49 26 -68 l6
-35 -31 35 c-17 19 -37 47 -45 62 -14 25 -13 28 8 43 30 21 51 15 55 -15z
m-98 -28 c0 -5 20 -32 45 -61 25 -29 45 -55 45 -57 0 -14 -42 21 -54 44 -8 15
-23 36 -35 46 -22 20 -27 36 -11 36 6 0 10 -4 10 -8z m119 -162 c15 -22 15
-23 -6 -12 -11 6 -23 19 -27 28 -9 23 14 12 33 -16z m91 -116 c0 5 7 3 15 -4
8 -7 12 -16 10 -21 -3 -4 5 -13 17 -20 12 -7 31 -23 41 -36 10 -13 64 -62 119
-109 54 -48 97 -88 95 -90 -8 -8 -142 59 -191 95 -28 20 -60 41 -72 46 -12 6
-39 25 -59 43 -37 33 -37 34 -26 73 7 22 9 45 5 52 -4 6 5 1 19 -12 15 -14 27
-21 27 -17z m331 -261 c13 -17 13 -17 -6 -3 -11 8 -22 16 -24 17 -2 2 0 3 6 3
6 0 17 -8 24 -17z m101 -80 c-8 -3 -5 -11 10 -24 l23 -20 -32 15 c-43 21 -48
34 -15 33 15 0 21 -2 14 -4z m-192 -240 c0 -5 -5 -15 -10 -23 -8 -12 -10 -11
-10 8 0 12 5 22 10 22 6 0 10 -3 10 -7z"/>
<path d="M919 3729 l-24 -20 28 17 c15 9 27 18 27 20 0 8 -8 4 -31 -17z"/>
<path d="M1376 2255 c4 -8 8 -15 10 -15 2 0 4 7 4 15 0 8 -4 15 -10 15 -5 0
-7 -7 -4 -15z"/>
<path d="M1822 2235 c0 -11 3 -29 8 -40 11 -25 11 1 0 35 -6 20 -8 21 -8 5z"/>
<path d="M615 3940 c-49 -49 -56 -60 -41 -66 11 -4 27 2 45 20 31 30 77 106
64 106 -5 0 -35 -27 -68 -60z"/>
<path d="M1270 3860 c-13 -8 -12 -10 3 -10 9 0 17 5 17 10 0 12 -1 12 -20 0z"/>
<path d="M1286 3825 c-9 -26 -7 -32 5 -12 6 10 9 21 6 23 -2 3 -7 -2 -11 -11z"/>
<path d="M1308 3610 c-4 -14 -7 -54 -7 -90 l1 -65 10 55 c5 30 7 71 6 90 -3
32 -4 33 -10 10z"/>
<path d="M479 3415 c17 -57 19 -60 20 -34 1 14 -6 34 -14 45 -14 18 -14 17 -6
-11z"/>
<path d="M2841 3098 c28 -51 84 -161 125 -245 82 -168 82 -173 38 -267 -29
-61 -30 -80 -4 -116 l20 -28 -43 -42 c-91 -92 -396 -304 -512 -357 -39 -17
-81 -36 -95 -42 -23 -11 -23 -11 9 -6 51 8 135 49 226 109 44 30 127 84 185
121 97 62 150 109 216 192 26 32 26 32 9 77 -17 45 -17 46 9 101 15 30 32 55
37 55 27 0 4 75 -62 205 -39 77 -77 147 -83 155 -7 8 -25 40 -40 70 -25 51
-68 110 -80 110 -3 0 17 -42 45 -92z"/>
<path d="M340 3060 c0 -5 5 -10 11 -10 5 0 7 5 4 10 -3 6 -8 10 -11 10 -2 0
-4 -4 -4 -10z"/>
<path d="M1729 2899 c-5 -10 -9 -20 -9 -23 0 -9 39 17 44 30 7 18 -24 12 -35
-7z"/>
<path d="M536 2855 c-9 -26 -7 -32 5 -12 6 10 9 21 6 23 -2 3 -7 -2 -11 -11z"/>
<path d="M1731 2694 c0 -11 3 -14 6 -6 3 7 2 16 -1 19 -3 4 -6 -2 -5 -13z"/>
<path d="M1851 2690 c14 -31 19 -36 19 -24 0 6 -7 19 -16 30 -14 18 -14 18 -3
-6z"/>
<path d="M2900 2700 c-8 -4 -35 -14 -60 -21 -25 -7 -54 -19 -65 -25 -11 -7
-24 -14 -30 -14 -19 -2 -240 -113 -265 -133 l-25 -20 25 7 c14 4 39 11 55 15
17 5 66 24 110 44 65 29 94 36 154 38 75 2 75 2 84 -27 5 -16 14 -34 19 -41
15 -19 -1 -72 -26 -88 -22 -15 -54 -20 -174 -29 -34 -3 -70 -10 -80 -16 -16
-11 -16 -11 1 -6 33 10 209 8 216 -2 4 -6 25 -11 49 -10 37 0 42 3 43 24 2 36
3 42 12 50 11 12 8 36 -4 28 -7 -4 -9 5 -6 30 3 20 1 36 -3 36 -5 0 -6 10 -2
22 4 16 2 19 -9 13 -11 -7 -11 -5 1 10 14 17 13 18 -7 13 -28 -7 -31 8 -3 17
44 14 71 69 28 57 -18 -4 -20 -2 -16 16 7 23 2 26 -22 12z m-31 -42 c-10 -18
-9 -20 5 -15 10 4 15 3 12 -2 -3 -5 -15 -11 -26 -14 -18 -5 -19 -4 -4 24 8 16
17 29 20 29 2 0 0 -10 -7 -22z"/>
<path d="M1896 2587 c3 -10 9 -15 12 -12 3 3 0 11 -7 18 -10 9 -11 8 -5 -6z"/>
<path d="M4770 2528 c-52 -14 -57 -26 -10 -23 40 2 70 18 53 27 -4 3 -24 1
-43 -4z"/>
<path d="M1120 2433 c0 -6 8 -17 18 -24 16 -13 16 -13 2 6 -8 11 -16 22 -17
24 -2 2 -3 0 -3 -6z"/>
<path d="M4760 2356 c0 -2 8 -10 18 -17 15 -13 16 -12 3 4 -13 16 -21 21 -21
13z"/>
<path d="M4755 2110 c10 -11 20 -20 23 -20 3 0 -3 9 -13 20 -10 11 -20 20 -23
20 -3 0 3 -9 13 -20z"/>
<path d="M4780 2076 c0 -2 8 -10 18 -17 15 -13 16 -12 3 4 -13 16 -21 21 -21
13z"/>
<path d="M1460 1937 c0 -2 15 -16 33 -33 l32 -29 -29 33 c-28 30 -36 37 -36
29z"/>
<path d="M1301 1688 c-7 -11 -14 -39 -16 -62 -15 -162 -23 -214 -51 -308 -7
-25 13 -23 21 2 3 11 10 20 15 20 26 0 -151 -509 -219 -625 -22 -39 -51 -100
-65 -135 -30 -80 -99 -205 -134 -242 -26 -28 -25 -46 1 -31 30 16 84 101 136
213 29 63 65 140 79 170 14 30 34 66 44 79 10 13 18 34 18 46 0 12 9 34 20 48
11 14 22 42 25 62 5 40 53 149 56 125 0 -8 7 17 14 57 7 39 20 86 29 104 10
19 16 54 15 88 -1 31 6 79 16 106 12 37 16 81 16 174 -1 69 -3 126 -4 127 -2
2 -9 -6 -16 -18z"/>
<path d="M2112 940 c0 -19 2 -27 5 -17 2 9 2 25 0 35 -3 9 -5 1 -5 -18z"/>
<path d="M2160 900 c0 -16 2 -30 4 -30 2 0 6 14 8 30 3 17 1 30 -4 30 -4 0 -8
-13 -8 -30z"/>
<path d="M1966 335 c-9 -26 -7 -32 5 -12 6 10 9 21 6 23 -2 3 -7 -2 -11 -11z"/>
</g>
</svg>
